<svg height="512" viewBox="0 0 56 56" width="512" xmlns="http://www.w3.org/2000/svg"><g id="Page-1" fill="none" fill-rule="evenodd"><g id="033---Disk" fill="rgb(0,0,0)" fill-rule="nonzero"><path id="Shape" d="m38 22.118v-3.756c-5.109 2.599-18.309 2.638-19 2.638s-13.891-.039-19-2.638v10.606c.5 1.097 7.219 3.032 19 3.032 1.617 0 3.286-.049 4.964-.134 2.7424895-5.402255 8.0161294-9.0647972 14.036-9.748zm-34 5.882c0 .5522847-.44771525 1-1 1s-1-.4477153-1-1v-2c0-.5522847.44771525-1 1-1s1 .4477153 1 1zm-1-5c-.55228475 0-1-.4477153-1-1s.44771525-1 1-1 1 .4477153 1 1-.44771525 1-1 1z"/><path id="Shape" d="m19 34c-.691 0-13.891-.039-19-2.638v11.606c.5 1.097 7.219 3.032 19 3.032 1.385 0 2.719-.036 4.017-.091-1.3780394-3.8854313-1.3539844-8.1304355.068-12-1.379.052-2.75.091-4.085.091zm-15 7c0 .5522847-.44771525 1-1 1s-1-.4477153-1-1v-2c0-.5522847.44771525-1 1-1s1 .4477153 1 1zm-1-5c-.55228475 0-1-.4477153-1-1s.44771525-1 1-1 1 .4477153 1 1-.44771525 1-1 1z"/><path id="Shape" d="m19 6c11.665 0 18.37-1.9 18.984-3-.614-1.1-7.319-3-18.984-3-11.8 0-18.523 1.942-19 3.038v.019c.477 1.001 7.2 2.943 19 2.943z"/><path id="Shape" d="m19 19c11.8 0 18.523-1.942 19-3.038v-10.6c-5.109 2.599-18.309 2.638-19 2.638s-13.891-.039-19-2.638v10.638c.435 1.046 7.164 3 19 3zm7.886-4.766c2.6497678-.1928699 5.2802325-.5941102 7.867-1.2.5338367-.1329664 1.0748187.1902488 1.210707.7233492.1358884.5331004-.1843589 1.0758446-.716707 1.2146508-2.6930849.6338577-5.4318708 1.0548236-8.191 1.259-.029 0-.057 0-.086 0-.5522847.023196-1.018804-.4057153-1.042-.958s.4057153-1.018804.958-1.042zm-23.886-6.234c.55228475 0 1 .44771525 1 1s-.44771525 1-1 1-1-.44771525-1-1 .44771525-1 1-1zm-1 5c0-.5522847.44771525-1 1-1s1 .4477153 1 1v2c0 .5522847-.44771525 1-1 1s-1-.4477153-1-1z"/><path id="Shape" d="m40 24c-8.836556 0-16 7.163444-16 16s7.163444 16 16 16 16-7.163444 16-16c-.0104696-8.8322157-7.1677843-15.9895304-16-16zm8 16c0-.5522847.4477153-1 1-1s1 .4477153 1 1c-.0060624 5.5203344-4.4796656 9.9939376-10 10-.5522847 0-1-.4477153-1-1s.4477153-1 1-1c4.4162219-.0049599 7.9950401-3.5837781 8-8zm-20 0c0 .5522847-.4477153 1-1 1s-1-.4477153-1-1c.0082673-7.7285595 6.2714405-13.9917327 14-14 .5522847 0 1 .4477153 1 1s-.4477153 1-1 1c-6.624447.0071648-11.9928352 5.375553-12 12zm4 0c0 .5522847-.4477153 1-1 1s-1-.4477153-1-1c.0060624-5.5203344 4.4796656-9.9939376 10-10 .5522847 0 1 .4477153 1 1s-.4477153 1-1 1c-4.4162219.0049599-7.9950401 3.5837781-8 8zm3 0c0-2.7614237 2.2385763-5 5-5s5 2.2385763 5 5-2.2385763 5-5 5c-2.7600532-.0033061-4.9966939-2.2399468-5-5zm5 14c-.5522847 0-1-.4477153-1-1s.4477153-1 1-1c6.624447-.0071648 11.9928352-5.375553 12-12 0-.5522847.4477153-1 1-1s1 .4477153 1 1c-.0082673 7.7285595-6.2714405 13.9917327-14 14z"/><circle id="Oval" cx="40" cy="40" r="3"/></g></g></svg>