<svg id="Capa_1" enable-background="new 0 0 510.261 510.261" height="512" viewBox="0 0 510.261 510.261" width="512" xmlns="http://www.w3.org/2000/svg"><path d="m507.34 495.061-68.86-68.85c-1.95-1.96-5.11-1.96-7.07-.01l-15.14 15.14c-5.86 5.86-15.34 5.87-21.21 0-5.86-5.85-5.86-15.35 0-21.21l15.14-15.13c1.96-1.96 1.96-5.12 0-7.08l-53.25-53.25c-1.96-1.96-5.12-1.96-7.08 0l-15.13 15.14c-5.83 5.83-15.34 5.88-21.22 0-5.86-5.86-5.86-15.36 0-21.21l15.14-15.14c1.96-1.96 1.96-5.12 0-7.07l-53.25-53.25c-1.95-1.96-5.11-1.96-7.07-.01l-15.14 15.14c-5.86 5.86-15.33 5.88-21.21 0-5.86-5.85-5.86-15.35 0-21.21l15.14-15.14c1.95-1.96 1.95-5.12-.01-7.07l-53.25-53.25c-1.95-1.96-5.11-1.96-7.07 0l-15.14 15.14c-5.82 5.84-15.34 5.87-21.21 0-5.86-5.86-5.86-15.36 0-21.22l15.14-15.13c1.96-1.96 1.96-5.12 0-7.08l-53.25-53.24c-1.95-1.96-5.11-1.96-7.07-.01l-15.14 15.14c-5.86 5.86-15.38 5.85-21.21 0-5.86-5.86-5.86-15.35 0-21.21l15.14-15.14c1.95-1.96 1.95-5.12-.01-7.07l-68.85-68.86c-5.66-5.68-15.2-1.58-15.2 6.3v498.11c0 1.62 1.31 2.93 2.93 2.93h498.11c7.98 0 11.92-9.59 6.3-15.2zm-204.98-51.35h-220.81c-8.28 0-15-6.72-15-15v-220.81c0-13.33 16.18-20.04 25.61-10.61l220.81 220.81c9.43 9.43 2.72 25.61-10.61 25.61z"/><path d="m96.549 413.712h169.6l-169.6-169.6z"/><path d="m187.84 58.134 5.657-5.657 264.287 264.287-5.657 5.657c-5.858 5.857-5.858 15.355 0 21.213s15.355 5.858 21.213 0l32.527-32.527c5.858-5.857 5.858-15.355 0-21.213-5.857-5.857-15.355-5.857-21.213 0l-5.657 5.657-264.287-264.288 5.657-5.657c5.858-5.857 5.858-15.355 0-21.213-5.857-5.857-15.355-5.857-21.213 0l-32.527 32.527c-5.858 5.857-5.858 15.355 0 21.213 5.858 5.859 15.355 5.858 21.213.001z"/></svg>